<?xml version="1.0" encoding="UTF-8"?>
<svg width="752pt" height="752pt" version="1.1" viewBox="0 0 752 752" xmlns="http://www.w3.org/2000/svg">
 <path d="m378.84 600.95c-6.1562-1.4219-11.367-16.574-17.051-20.836-4.2617-2.8398-17.996-12.312-17.996-12.312s-5.6836-15.629-8.5234-17.051c-2.8398-1.4219-15.156-9.9453-15.156-9.9453s-2.3672-18.469-8.0508-22.258c-5.6836-3.7891-19.418-9.4727-19.418-9.4727s-5.2109-19.891-9.4727-21.785c-4.2617-1.4219-12.312-5.6836-12.312-5.6836s1.4219-12.312-7.1055-25.102c-8.5234-12.785-17.996-12.785-17.996-12.785s2.3672-17.996-5.2109-26.52c-7.1055-8.5234-16.102-9.9453-16.102-9.9453s0-9.4727-2.8398-13.734c-2.8398-4.2617-10.418-7.5781-10.418-7.5781s-0.94531-22.73-7.5781-30.309c-6.6289-7.5781-15.629-17.051-15.629-17.051s5.2109-18.469 2.8398-27.941c-2.8398-9.4727-12.312-26.52-12.312-26.52-0.47266-0.94531 2.3672-10.418 2.8398-12.785 0.94531-5.6836-3.3164-11.367-3.7891-17.523-0.46484-9.9453 3.7969-21.309-3.7812-29.359-10.891-10.891-3.7891-29.363-3.7891-29.363s4.2617-3.7891 16.102 2.8398c13.734 7.1055 28.887 15.629 28.887 15.629s28.887 13.734 30.309 14.207c3.7891 1.8945 10.418 2.3672 14.68 2.8398 6.1562 0.94531 14.207-3.3164 14.68-9.4727 0.47266-7.5781-7.5781-16.102-12.312-20.836-3.7891-3.7891-15.156-9.4727-17.051-14.207l-5.2109-16.102 4.2617-9.9453s15.156 4.2617 27.469 3.7891c11.367-0.47266 20.836-6.6289 31.258-8.9961 16.574-2.8398 32.676 6.6289 49.254 4.7344 7.5781-0.94531 15.156-2.8398 22.73-5.2109 1.8945-0.47266 9.4727-4.2617 10.891-3.7891 0 0 31.73 12.785 41.203 12.785s41.676-8.5234 41.676-8.5234 10.891 6.6289 23.207 7.1055c12.312 0.47266 24.625-2.3672 24.625-2.3672s9.4727 2.3672 3.7891 10.891c-5.6836 8.5234-17.996 22.73-17.996 23.207-5.2109 6.1562-12.785 8.9961-16.102 17.051-6.6289 17.523 4.7344 21.312 21.785 16.574l27.469-8.5234s24.152-8.0508 25.102-8.5234c7.5781-2.8398 14.207-8.5234 22.73-6.6289 0.94531 7.5781 0.94531 16.102 0.47266 23.68-0.94531 11.367-9.4727 18.469-9.4727 28.887s4.2617 24.625 4.2617 24.625 0 8.0508-4.2617 15.629c-4.2617 8.0508-14.207 18.469-11.367 26.52 1.8945 5.2109 5.6836 10.418 2.8398 15.156-1.8945 3.3164-8.0508 6.6289-10.418 9.9453-5.6836 7.1055-12.785 18.469-10.418 28.414 2.3672 8.9961-7.1055 6.1562-12.312 15.629-2.3672 4.7344-3.7891 9.9453-1.4219 15.156-0.94531-1.8945-15.629 9.9453-17.523 12.312-5.2109 8.0508-3.7891 25.102-3.7891 25.102s-17.996 2.3672-22.258 9.9453c-4.2617 8.0508-5.2109 28.887-5.2109 28.887s-9.9453 5.2109-12.785 11.367c-2.8398 6.6289-8.0508 15.629-8.0508 15.629s-11.367 5.6836-16.102 10.891c-4.2617 5.2109-8.0508 19.891-8.0508 19.891s-8.5234-0.94531-11.367 7.1055c-2.8398 8.0508-12.312 22.258-12.312 22.258-3.3164 5.2109-13.734 10.418-18.941 15.629-2.8359 4.7305-8.9922 15.148-16.094 14.676 0.47266 0 0.47266 0 0 0z"/>
</svg>
